<?xml version="1.0" encoding="utf-8"?>
<!-- Generator: Adobe Illustrator 22.0.0, SVG Export Plug-In . SVG Version: 6.00 Build 0)  -->
<svg version="1.1" id="Layer_1" xmlns:svgjs="http://svgjs.com/svgjs"
	 xmlns="http://www.w3.org/2000/svg" xmlns:xlink="http://www.w3.org/1999/xlink" x="0px" y="0px" viewBox="0 0 512 512"
	 style="enable-background:new 0 0 512 512;" xml:space="preserve">
<style type="text/css">
	.st0{fill:#FFFFFF;}
</style>
<polygon points="256,512 512,256 0,256 "/>
<polygon points="512,256 0,256 256,0 "/>
<path class="st0" d="M338.9,82.9c-7.3,39.2-41.7,68.8-82.9,68.8s-75.7-29.7-82.9-68.8l-61.8,61.8c1.9,9,4.7,17.8,8.3,26.2
	c11.5,27.3,31.1,51,56.7,67.5v12c0,2,0.5,4,1.5,5.6c2,3.5,5.7,5.8,9.9,5.8h11.4v29.4l-19.4,19.4c-4.4,4.4-4.4,11.7,0,16.1l19.4,19.4
	v13.3L179.6,379c-4.4,4.4-4.4,11.7,0,16.1l19.4,19.4v40.8c0,3,1.2,5.9,3.3,8.1l45.5,45.5c2.2,2.2,5.1,3.3,8.1,3.3
	c3,0,5.8-1.1,8.1-3.3l45.5-45.5c2.1-2.1,3.3-5,3.3-8.1V261.8h11.4c4.2,0,7.9-2.3,9.9-5.8c0.9-1.7,1.5-3.6,1.5-5.6v-12
	c25.6-16.4,45.2-40.1,56.7-67.5c3.5-8.4,6.3-17.2,8.3-26.2L338.9,82.9z M267.4,432.5c0,6.3-5.1,11.4-11.4,11.4s-11.4-5.1-11.4-11.4
	V273.2c0-3.7,1.8-7,4.5-9c1.9-1.5,4.3-2.3,6.9-2.3c2.6,0,5,0.9,6.9,2.3c2.7,2.1,4.5,5.4,4.5,9V432.5z"/>
</svg>
