<?xml version="1.0" standalone="no"?>
<!DOCTYPE svg PUBLIC "-//W3C//DTD SVG 20010904//EN"
 "http://www.w3.org/TR/2001/REC-SVG-20010904/DTD/svg10.dtd">
<svg version="1.0" xmlns="http://www.w3.org/2000/svg"
 width="1008.000000pt" height="1008.000000pt" viewBox="0 0 1008.000000 1008.000000"
 preserveAspectRatio="xMidYMid meet">
<metadata>
Created by potrace 1.11, written by Peter Selinger 2001-2013
</metadata>
<g transform="translate(0.000000,1008.000000) scale(0.100000,-0.100000)"
fill="#000000" stroke="none">
<path d="M4710 9634 c-427 -38 -769 -107 -1135 -229 -1365 -455 -2445 -1535
-2900 -2900 -104 -310 -169 -606 -212 -955 -26 -208 -26 -812 0 -1020 69 -564
208 -1039 446 -1525 644 -1312 1899 -2254 3331 -2499 306 -53 410 -61 800 -61
390 0 494 8 800 61 1892 324 3410 1842 3734 3734 53 306 61 410 61 800 0 390
-8 494 -61 800 -245 1432 -1187 2687 -2499 3331 -482 236 -961 377 -1515 445
-129 16 -730 28 -850 18z m449 -1833 c77 -24 149 -77 194 -143 67 -97 70 -114
75 -409 l4 -265 72 -18 c550 -139 1035 -574 1239 -1111 66 -174 116 -415 117
-560 0 -33 32 -332 70 -665 39 -333 70 -605 70 -606 0 0 25 -18 55 -38 134
-93 203 -242 193 -418 -8 -143 -69 -212 -213 -243 -104 -22 -3885 -22 -3989 0
-146 31 -205 96 -213 238 -12 180 57 329 192 423 30 20 55 38 55 39 0 1 32
272 70 604 39 331 70 629 70 663 0 83 26 253 57 373 161 622 652 1119 1277
1294 l101 28 5 279 c6 307 6 310 74 403 94 127 267 181 425 132z m526 -4933
c-24 -195 -108 -348 -248 -454 -132 -100 -263 -140 -431 -131 -170 8 -301 65
-420 182 -105 103 -175 247 -190 393 l-7 62 651 0 652 0 -7 -52z"/>
</g>
</svg>
